{"title":"Jackson Browne - Lives In The Balance","uid":4857327,"size":273285538,"categoryP":"audio","categoryS":"flac","magnet":"?xt=urn:btih:62097a541d3fe5be9bc5c5c18498afee6e075d74&amp;dn=Jackson+Browne+-+Lives+In+The+Balance&amp;tr=udp%3A%2F%2Ftracker.openbittorrent.com%3A80&amp;tr=udp%3A%2F%2Fopen.demonii.com%3A1337&amp;tr=udp%3A%2F%2Ftracker.coppersurfer.tk%3A6969&amp;tr=udp%3A%2F%2Fexodus.desync.com%3A6969","seeders":1,"leechers":0,"uploader":"sowingmyseed","files":10,"time":1240114584,"description":"Exact Audio Copy V0.99 prebeta 3 from 28. July 2007\n\nEAC extraction logfile from 19. April 2009, 8:35\n\nJackson Browne / Lives In The Balance\n\nUsed drive  : PIONEER DVD-RW DVR-K17LF   Adapter: 1  ID: 0\n\nRead mode               : Secure\nUtilize accurate stream : Yes\nDefeat audio cache      : Yes\nMake use of C2 pointers : No\n\nRead offset correction                      : 48\nOverread into Lead-In and Lead-Out          : No\nFill up missing offset samples with silence : Yes\nDelete leading and trailing silent blocks   : No\nNull samples used in CRC calculations       : No\nUsed interface                              : Native Win32 interface for Win NT &amp; 2000\nGap handling                                : Not detected, thus appended to previous track\n\nUsed output format : Internal WAV Routines\nSample format      : 44.100 Hz; 16 Bit; Stereo\n\n\nTOC of the extracted CD\n\n     Track |   Start  |  Length  | Start sector | End sector \n    ---------------------------------------------------------\n        1  |  0:00.32 |  5:12.53 |        32    |    23484   \n        2  |  5:13.10 |  4:37.30 |     23485    |    44289   \n        3  |  9:50.40 |  5:41.55 |     44290    |    69919   \n        4  | 15:32.20 |  4:12.52 |     69920    |    88871   \n        5  | 19:44.72 |  5:41.00 |     88872    |   114446   \n        6  | 25:25.72 |  4:18.38 |    114447    |   133834   \n        7  | 29:44.35 |  4:19.35 |    133835    |   153294   \n        8  | 34:03.70 |  5:11.32 |    153295    |   176651   \n\n\nTrack  1\n\n     Filename C:UserscostcoMusicLives In The BalanceJackson Browne - Lives In The Balance - 01 - For America.wav\n\n     Peak level 91.1 %\n     Track quality 100.0 %\n     Copy CRC 29884FD0\n     Accurately ripped (confidence 2)  [82F421F6]\n     Copy OK\n\nTrack  2\n\n     Filename C:UserscostcoMusicLives In The BalanceJackson Browne - Lives In The Balance - 02 - Soldier of Plenty.wav\n\n     Peak level 91.2 %\n     Track quality 100.0 %\n     Copy CRC F949936B\n     Accurately ripped (confidence 2)  [3C0F20DE]\n     Copy OK\n\nTrack  3\n\n     Filename C:UserscostcoMusicLives In The BalanceJackson Browne - Lives In The Balance - 03 - In the Shape of a Heart.wav\n\n     Peak level 86.3 %\n     Track quality 100.0 %\n     Copy CRC AAFBB0B2\n     Accurately ripped (confidence 2)  [2BCDF389]\n     Copy OK\n\nTrack  4\n\n     Filename C:UserscostcoMusicLives In The BalanceJackson Browne - Lives In The Balance - 04 - Candy.wav\n\n     Peak level 91.1 %\n     Track quality 99.9 %\n     Copy CRC A618C168\n     Accurately ripped (confidence 2)  [ACE3FB31]\n     Copy OK\n\nTrack  5\n\n     Filename C:UserscostcoMusicLives In The BalanceJackson Browne - Lives In The Balance - 05 - Lawless Avenues.wav\n\n     Peak level 87.2 %\n     Track quality 100.0 %\n     Copy CRC 621043D7\n     Accurately ripped (confidence 2)  [C5E373CA]\n     Copy OK\n\nTrack  6\n\n     Filename C:UserscostcoMusicLives In The BalanceJackson Browne - Lives In The Balance - 06 - Lives in the Balance.wav\n\n     Peak level 91.1 %\n     Track quality 100.0 %\n     Copy CRC E80598FF\n     Accurately ripped (confidence 2)  [83715530]\n     Copy OK\n\nTrack  7\n\n     Filename C:UserscostcoMusicLives In The BalanceJackson Browne - Lives In The Balance - 07 - Till I Go Down.wav\n\n     Peak level 89.1 %\n     Track quality 100.0 %\n     Copy CRC 22E6DFB0\n     Accurately ripped (confidence 2)  [DCDDA857]\n     Copy OK\n\nTrack  8\n\n     Filename C:UserscostcoMusicLives In The BalanceJackson Browne - Lives In The Balance - 08 - Black and White.wav\n\n     Peak level 89.1 %\n     Track quality 100.0 %\n     Copy CRC A3049AC0\n     Accurately ripped (confidence 2)  [DE71B153]\n     Copy OK\n\n\nAll tracks accurately ripped\n\nNo errors occurred\n\nEnd of status report\n","torrent":{"xt":"urn:btih:62097a541d3fe5be9bc5c5c18498afee6e075d74","amp;dn":"Jackson+Browne+-+Lives+In+The+Balance","amp;tr":["udp%3A%2F%2Ftracker.openbittorrent.com%3A80","udp%3A%2F%2Fopen.demonii.com%3A1337","udp%3A%2F%2Ftracker.coppersurfer.tk%3A6969","udp%3A%2F%2Fexodus.desync.com%3A6969"],"infoHash":"62097a541d3fe5be9bc5c5c18498afee6e075d74","infoHashBuffer":{"type":"Buffer","data":[98,9,122,84,29,63,229,190,155,197,197,193,132,152,175,238,110,7,93,116]},"announce":[],"urlList":[]}}